<svg width="802" height="416" viewBox="0 0 802 416" fill="none" xmlns="http://www.w3.org/2000/svg">
<path d="M142.213 293.091H190.418L175.543 334.656C173.688 339.8 168.382 343.258 162.426 343.199L133.718 342.874C124.669 342.785 118.225 334.833 120.861 326.94L129.194 301.871C130.919 296.668 136.224 293.091 142.213 293.091Z" fill="#215AA7" fill-opacity="0.05"/>
<path d="M610.092 41.479C615.329 24.408 604.854 1.94913 561.1 2.68116C517.315 3.4132 409.305 1.91984 372.045 2.68116C334.784 3.4132 310.962 -0.979015 291.449 61.244C271.936 123.467 256.493 178.018 249.49 197.227C239.015 225.952 239.015 237.664 301.864 237.664H457.489C505.374 237.664 502.381 322.58 439.532 322.58H259.964C243.803 322.58 220.19 325.274 220.011 295.7C220.011 295.027 219.053 294.851 218.843 295.495C210.404 321.614 195.47 367.908 191.13 387C185.145 413.353 218.065 413.353 236.022 413.353C284.805 413.353 425.765 411.889 461.08 412.621C496.395 413.353 504.117 382.607 513.724 354.058C523.33 325.509 549.877 236.932 549.877 236.932C549.877 236.932 550.715 234.356 556.491 215.528C562.267 196.7 571.305 180.566 505.434 178.37C439.562 176.173 380.395 178.37 380.395 178.37C380.395 178.37 392.605 178.018 357.709 178.37C283.937 179.102 307.879 97.1137 358.757 97.1137H553.288C571.455 97.1137 585.191 118.87 586.149 120.451C586.149 120.48 586.209 120.48 586.239 120.451C586.987 117.962 601.412 69.9991 610.151 41.479H610.092Z" fill="#215AA7" fill-opacity="0.05"/>
<path d="M250.545 2.45825L242.242 18.6897C238.12 26.7321 229.696 31.81 220.459 31.81C208.425 31.81 206.078 31.6925 201.355 31.5751C185.319 31.2229 186.432 30.9588 184.146 35.8898C182.521 38.1206 179.512 45.2237 175.15 57.2285L133.21 172.669L83.4781 199.555L118.167 222.567L79.0554 351.714C74.9938 362.956 70.0296 381.066 70.0296 381.066C79.0554 381.066 85.0726 381.066 82.064 381.066C82.064 381.066 3.8405 381.066 91.0898 381.066C112.15 381.066 121.176 413.353 121.176 413.353H27.9093C2.1256 413.353 -2.1767 404.547 0.8319 395.742C6.84909 378.131 12.9565 356.851 15.8749 348.779L54.9867 222.567L30.2259 199.555L70.0296 169.734L109.141 49.3916C120.303 17.7798 125.749 2.45825 160.288 2.45825H250.545Z" fill="#215AA7" fill-opacity="0.05"/>
<path d="M791.881 47.2057L752.582 171.121L775.273 204.218L733.155 241.929L694.984 371.745C683.767 404.523 689.346 415.528 653.876 416L559.709 414.613C565.171 397.59 580.293 385.523 598.028 384.048L603.959 383.546C613.12 383.428 609.832 383.546 627.449 383.546C627.302 384.166 634.79 366.552 639.194 354.043L677.366 227.177L718.546 200.436L692.047 171.121L733.155 32.4539H700.856C685.47 32.4539 686.057 17.0235 683.532 1.77021L683.238 0H744.9C797.753 0 805.035 2.41929 800.689 17.7021C794.817 38.3546 794.611 39.0627 791.881 47.2057Z" fill="#215AA7" fill-opacity="0.05"/>
</svg>
