<svg width="80" height="41" viewBox="0 0 80 41" fill="none" xmlns="http://www.w3.org/2000/svg">
<path d="M14.19 29H19L17.5158 33.1474C17.3306 33.6607 16.8012 34.0058 16.2069 33.9999L13.3423 33.9675C12.4394 33.9586 11.7964 33.1651 12.0594 32.3775L12.8909 29.8761C13.063 29.3569 13.5924 29 14.19 29Z" fill="white"/>
<path d="M60.8765 3.89358C61.3991 2.19019 60.3539 -0.0508018 55.988 0.0222423C51.619 0.0952864 40.8416 -0.0537236 37.1236 0.0222423C33.4057 0.0952864 31.0286 -0.342978 29.0816 5.86577C27.1345 12.0745 25.5936 17.5178 24.8948 19.4345C23.8496 22.3007 23.8496 23.4694 30.1208 23.4694H45.6495C50.4275 23.4694 50.1289 31.9425 43.8577 31.9425H25.94C24.3274 31.9425 21.9713 32.2113 21.9533 29.2603C21.9533 29.1931 21.8578 29.1756 21.8369 29.2399C20.9947 31.8461 19.5046 36.4654 19.0716 38.3704C18.4743 41 21.7592 41 23.551 41C28.4186 41 42.484 40.8539 46.0078 40.927C49.5316 41 50.3021 37.9321 51.2607 35.0834C52.2193 32.2347 54.8681 23.3964 54.8681 23.3964C54.8681 23.3964 54.9517 23.1392 55.5281 21.2606C56.1044 19.3819 57.0063 17.772 50.4335 17.5528C43.8607 17.3337 37.9568 17.5528 37.9568 17.5528C37.9568 17.5528 39.1752 17.5178 35.6932 17.5528C28.332 17.6259 30.7211 9.44493 35.7977 9.44493H55.2085C57.0212 9.44493 58.3919 11.6158 58.4875 11.7736C58.4875 11.7765 58.4935 11.7765 58.4964 11.7736C58.5711 11.5252 60.0105 6.73938 60.8825 3.89358H60.8765Z" fill="white"/>
<path d="M25 0L24.1714 1.61962C23.7602 2.4221 22.9196 2.92878 21.998 2.92878C20.7971 2.92878 20.563 2.91707 20.0917 2.90535C18.4916 2.8702 18.6026 2.84385 18.3745 3.33588C18.2124 3.55847 17.9122 4.26723 17.4769 5.4651L13.292 16.984L8.32963 19.6668L11.791 21.9629L7.88833 34.8496C7.48306 35.9713 6.98772 37.7783 6.98772 37.7783C7.88833 37.7783 8.48874 37.7783 8.18854 37.7783C8.18854 37.7783 0.383214 37.7783 9.08915 37.7783C11.1906 37.7783 12.0912 41 12.0912 41H2.78485C0.212097 41 -0.217196 40.1214 0.0830088 39.2427C0.683418 37.4855 1.29283 35.3621 1.58403 34.5567L5.48669 21.9629L3.01601 19.6668L6.98772 16.6911L10.8904 4.68312C12.0041 1.52882 12.5475 0 15.9939 0H25Z" fill="white"/>
<path d="M79.0218 4.65248L74.9456 18.9007L77.566 21.2269L73.1986 23.844L69.4136 36.6383C68.3014 39.8689 68.8546 40.9535 65.3374 41L56 40.8633C56.5416 39.1855 58.041 37.9962 59.7996 37.8508L60.3877 37.8014C61.2961 37.7898 60.97 37.8014 62.717 37.8014C62.7024 37.8625 63.4449 36.1265 63.8816 34.8936L67.6667 22.3901L71.7428 20.6454L69.1224 16.8652L73.1986 3.19858H69.9959C68.4702 3.19858 68.5285 1.6778 68.2781 0.174468L68.249 0H74.3633C79.6041 0 80.3261 0.23844 79.8952 1.74468C79.3129 3.78014 79.2925 3.84993 79.0218 4.65248Z" fill="white"/>
</svg>
